<?xml version="1.0" encoding="UTF-8"?>
<svg version="1.1" xmlns="http://www.w3.org/2000/svg" width="400" height="400">
<path d="M0 0 C132 0 264 0 400 0 C400 132 400 264 400 400 C268 400 136 400 0 400 C0 268 0 136 0 0 Z " fill="#FEFEFE" transform="translate(0,0)"/>
<path d="M0 0 C0.89998024 -0.00467997 1.79996048 -0.00935994 2.72721285 -0.01418173 C5.73735491 -0.02613023 8.74704159 -0.01667499 11.75718689 -0.00723267 C13.91742213 -0.01129839 16.0776553 -0.01664028 18.23788452 -0.02316284 C24.10136616 -0.03684119 29.96468947 -0.03153578 35.82817388 -0.02202559 C41.96242911 -0.01443271 48.09667075 -0.02147348 54.23092651 -0.02618408 C64.53137141 -0.03164229 74.83175179 -0.02444783 85.13218689 -0.01016235 C97.045142 0.00616857 108.95794311 0.00087264 120.87089449 -0.01564157 C131.09607547 -0.02924936 141.32121005 -0.03117968 151.54639715 -0.02332556 C157.65485912 -0.01864573 163.76324867 -0.01803285 169.87170601 -0.02793503 C175.61320148 -0.03659223 181.3544981 -0.03060544 187.09597206 -0.01325226 C189.2047111 -0.00928096 191.31346683 -0.01043242 193.42219925 -0.01704025 C196.29739953 -0.02522016 199.1719598 -0.01497703 202.04711914 0 C203.30314669 -0.01003825 203.30314669 -0.01003825 204.58454853 -0.02027929 C210.99937127 0.04467616 214.00726537 1.5353678 218.73330593 6.00192356 C221.78375148 9.89626111 221.65593375 13.6557037 221.58825684 18.44538879 C221.59535122 19.34804145 221.60244561 20.25069411 221.60975498 21.18069988 C221.62733345 24.20027814 221.60923061 27.21856895 221.59117126 30.23812866 C221.59631016 32.40497422 221.60359121 34.57181561 221.612854 36.73864746 C221.63138087 42.62096318 221.61842051 48.50282609 221.5987637 54.38512301 C221.58238463 60.54113214 221.59118917 66.69711242 221.59628296 72.85313416 C221.60080507 83.19231401 221.58492749 93.53131302 221.55699158 103.87045288 C221.52494777 115.82204321 221.52495186 127.77330721 221.54220635 139.72492069 C221.55807399 151.22272801 221.55133573 162.72041575 221.53426933 174.21821785 C221.52739866 179.11082202 221.52843155 184.00333034 221.53581429 188.89593315 C221.54347912 194.65884634 221.53134399 200.4213885 221.50396538 206.18423843 C221.4970823 208.29857978 221.49698272 210.41295577 221.50418091 212.52729607 C221.51287899 215.41512038 221.49691296 218.30180066 221.47473145 221.18952942 C221.48297221 222.02494638 221.49121298 222.86036335 221.49970347 223.72109598 C221.41937314 229.39315012 220.4026416 232.80663663 216.96006775 237.38095093 C212.13067987 240.82301404 207.62715399 240.80763452 201.9201355 240.76190186 C201.02015526 240.76658183 200.12017502 240.7712618 199.19292265 240.77608359 C196.18278059 240.78803209 193.17309391 240.77857685 190.16294861 240.76913452 C188.00271336 240.77320025 185.8424802 240.77854214 183.68225098 240.7850647 C177.81876934 240.79874304 171.95544603 240.79343764 166.09196162 240.78392744 C159.95770639 240.77633456 153.82346475 240.78337533 147.68920898 240.78808594 C137.38876408 240.79354415 127.08838371 240.78634968 116.78794861 240.77206421 C104.8749935 240.75573329 92.96219239 240.76102922 81.04924101 240.77754343 C70.82406003 240.79115122 60.59892545 240.79308153 50.37373835 240.78522742 C44.26527638 240.78054759 38.15688682 240.77993471 32.04842949 240.78983688 C26.30693401 240.79849409 20.5656374 240.79250729 14.82416344 240.77515411 C12.7154244 240.77118281 10.60666867 240.77233427 8.49793625 240.77894211 C5.62273597 240.78712202 2.7481757 240.77687888 -0.12698364 240.76190186 C-1.38301119 240.7719401 -1.38301119 240.7719401 -2.66441303 240.78218114 C-8.59732756 240.72210542 -11.79739508 239.3743173 -16.28993225 235.38095093 C-19.82328603 231.34283232 -19.1882067 226.74031836 -19.18710327 221.67054749 C-19.19077996 220.76975253 -19.19445665 219.86895758 -19.19824475 218.94086581 C-19.20929395 215.91006491 -19.21312751 212.87929827 -19.2169342 209.84848022 C-19.22319784 207.6804595 -19.22984455 205.51243985 -19.23684692 203.34442139 C-19.25426398 197.4456277 -19.26481027 191.54684212 -19.27305245 185.64802909 C-19.27820033 181.96459356 -19.28427611 178.28116056 -19.29056358 174.59772682 C-19.30961626 163.07859208 -19.32384814 151.55946376 -19.33217555 140.04031628 C-19.34195409 126.73284007 -19.36828937 113.42559996 -19.40867645 100.11817807 C-19.43880615 89.83870191 -19.45364138 79.55927345 -19.45695657 69.27975398 C-19.45931032 63.13707258 -19.46831336 56.99456857 -19.49341774 50.85193443 C-19.51664881 45.07434815 -19.52095159 39.29705671 -19.51065636 33.51943588 C-19.51015971 31.39820565 -19.51651805 29.27696115 -19.5302124 27.15577507 C-19.54785681 24.26092959 -19.54086171 21.3671508 -19.52767944 18.4723053 C-19.53864869 17.63192913 -19.54961794 16.79155297 -19.56091958 15.92571086 C-19.50276271 10.63976989 -18.69917636 7.46905423 -15.03993225 3.38095093 C-10.13586695 -0.00018319 -5.74015772 -0.04599823 0 0 Z " fill="#0000FD" transform="translate(99.03993225097656,79.61904907226563)"/>
<path d="M0 0 C0.89998024 -0.00467997 1.79996048 -0.00935994 2.72721285 -0.01418173 C5.73735491 -0.02613023 8.74704159 -0.01667499 11.75718689 -0.00723267 C13.91742213 -0.01129839 16.0776553 -0.01664028 18.23788452 -0.02316284 C24.10136616 -0.03684119 29.96468947 -0.03153578 35.82817388 -0.02202559 C41.96242911 -0.01443271 48.09667075 -0.02147348 54.23092651 -0.02618408 C64.53137141 -0.03164229 74.83175179 -0.02444783 85.13218689 -0.01016235 C97.045142 0.00616857 108.95794311 0.00087264 120.87089449 -0.01564157 C131.09607547 -0.02924936 141.32121005 -0.03117968 151.54639715 -0.02332556 C157.65485912 -0.01864573 163.76324867 -0.01803285 169.87170601 -0.02793503 C175.61320148 -0.03659223 181.3544981 -0.03060544 187.09597206 -0.01325226 C189.2047111 -0.00928096 191.31346683 -0.01043242 193.42219925 -0.01704025 C196.29739953 -0.02522016 199.1719598 -0.01497703 202.04711914 0 C203.30314669 -0.01003825 203.30314669 -0.01003825 204.58454853 -0.02027929 C210.99937127 0.04467616 214.00726537 1.5353678 218.73330593 6.00192356 C221.78375148 9.89626111 221.65593375 13.6557037 221.58825684 18.44538879 C221.59535122 19.34804145 221.60244561 20.25069411 221.60975498 21.18069988 C221.62733345 24.20027814 221.60923061 27.21856895 221.59117126 30.23812866 C221.59631016 32.40497422 221.60359121 34.57181561 221.612854 36.73864746 C221.63138087 42.62096318 221.61842051 48.50282609 221.5987637 54.38512301 C221.58238463 60.54113214 221.59118917 66.69711242 221.59628296 72.85313416 C221.60080507 83.19231401 221.58492749 93.53131302 221.55699158 103.87045288 C221.52494777 115.82204321 221.52495186 127.77330721 221.54220635 139.72492069 C221.55807399 151.22272801 221.55133573 162.72041575 221.53426933 174.21821785 C221.52739866 179.11082202 221.52843155 184.00333034 221.53581429 188.89593315 C221.54347912 194.65884634 221.53134399 200.4213885 221.50396538 206.18423843 C221.4970823 208.29857978 221.49698272 210.41295577 221.50418091 212.52729607 C221.51287899 215.41512038 221.49691296 218.30180066 221.47473145 221.18952942 C221.48297221 222.02494638 221.49121298 222.86036335 221.49970347 223.72109598 C221.41937314 229.39315012 220.4026416 232.80663663 216.96006775 237.38095093 C212.13067987 240.82301404 207.62715399 240.80763452 201.9201355 240.76190186 C201.02015526 240.76658183 200.12017502 240.7712618 199.19292265 240.77608359 C196.18278059 240.78803209 193.17309391 240.77857685 190.16294861 240.76913452 C188.00271336 240.77320025 185.8424802 240.77854214 183.68225098 240.7850647 C177.81876934 240.79874304 171.95544603 240.79343764 166.09196162 240.78392744 C159.95770639 240.77633456 153.82346475 240.78337533 147.68920898 240.78808594 C137.38876408 240.79354415 127.08838371 240.78634968 116.78794861 240.77206421 C104.8749935 240.75573329 92.96219239 240.76102922 81.04924101 240.77754343 C70.82406003 240.79115122 60.59892545 240.79308153 50.37373835 240.78522742 C44.26527638 240.78054759 38.15688682 240.77993471 32.04842949 240.78983688 C26.30693401 240.79849409 20.5656374 240.79250729 14.82416344 240.77515411 C12.7154244 240.77118281 10.60666867 240.77233427 8.49793625 240.77894211 C5.62273597 240.78712202 2.7481757 240.77687888 -0.12698364 240.76190186 C-1.38301119 240.7719401 -1.38301119 240.7719401 -2.66441303 240.78218114 C-8.59732756 240.72210542 -11.79739508 239.3743173 -16.28993225 235.38095093 C-19.82328603 231.34283232 -19.1882067 226.74031836 -19.18710327 221.67054749 C-19.19077996 220.76975253 -19.19445665 219.86895758 -19.19824475 218.94086581 C-19.20929395 215.91006491 -19.21312751 212.87929827 -19.2169342 209.84848022 C-19.22319784 207.6804595 -19.22984455 205.51243985 -19.23684692 203.34442139 C-19.25426398 197.4456277 -19.26481027 191.54684212 -19.27305245 185.64802909 C-19.27820033 181.96459356 -19.28427611 178.28116056 -19.29056358 174.59772682 C-19.30961626 163.07859208 -19.32384814 151.55946376 -19.33217555 140.04031628 C-19.34195409 126.73284007 -19.36828937 113.42559996 -19.40867645 100.11817807 C-19.43880615 89.83870191 -19.45364138 79.55927345 -19.45695657 69.27975398 C-19.45931032 63.13707258 -19.46831336 56.99456857 -19.49341774 50.85193443 C-19.51664881 45.07434815 -19.52095159 39.29705671 -19.51065636 33.51943588 C-19.51015971 31.39820565 -19.51651805 29.27696115 -19.5302124 27.15577507 C-19.54785681 24.26092959 -19.54086171 21.3671508 -19.52767944 18.4723053 C-19.53864869 17.63192913 -19.54961794 16.79155297 -19.56091958 15.92571086 C-19.50276271 10.63976989 -18.69917636 7.46905423 -15.03993225 3.38095093 C-10.13586695 -0.00018319 -5.74015772 -0.04599823 0 0 Z M-4.03993225 3.38095093 C-4.36993225 4.04095093 -4.69993225 4.70095093 -5.03993225 5.38095093 C-4.37993225 5.38095093 -3.71993225 5.38095093 -3.03993225 5.38095093 C-3.03993225 6.70095093 -3.03993225 8.02095093 -3.03993225 9.38095093 C-4.02993225 9.87595093 -4.02993225 9.87595093 -5.03993225 10.38095093 C-5.03993225 9.72095093 -5.03993225 9.06095093 -5.03993225 8.38095093 C-7.90717912 8.9544003 -8.90138375 9.24240243 -11.03993225 11.38095093 C-13.11874672 16.22931041 -13.31884586 20.76661075 -13.28044128 25.96099854 C-13.28215013 26.81142042 -13.28385898 27.66184231 -13.28561962 28.53803456 C-13.28890695 31.38012827 -13.27792327 34.22198452 -13.26698303 37.0640564 C-13.26641876 39.10432428 -13.2667358 41.14459258 -13.26786804 43.18486023 C-13.26844191 48.71948799 -13.256682 54.25402907 -13.24272013 59.78863668 C-13.23021851 65.57421524 -13.22904271 71.35979577 -13.22666931 77.14538574 C-13.22045288 88.09936378 -13.20403982 99.05330189 -13.18397033 110.00726235 C-13.16161644 122.47874267 -13.15061918 134.9502249 -13.14057946 147.42172027 C-13.11967377 173.07481928 -13.08449458 198.72788287 -13.03993225 224.38095093 C-12.04993225 224.38095093 -11.05993225 224.38095093 -10.03993225 224.38095093 C-10.69993225 226.36095093 -11.35993225 228.34095093 -12.03993225 230.38095093 C-9.72993225 230.71095093 -7.41993225 231.04095093 -5.03993225 231.38095093 C-5.03993225 233.38095093 -5.03993225 235.38095093 -5.03993225 237.38095093 C64.92006775 237.38095093 134.88006775 237.38095093 206.96006775 237.38095093 C206.96006775 236.72095093 206.96006775 236.06095093 206.96006775 235.38095093 C208.61006775 235.71095093 210.26006775 236.04095093 211.96006775 236.38095093 C211.93944275 235.41157593 211.91881775 234.44220093 211.89756775 233.44345093 C211.96006775 230.38095093 211.96006775 230.38095093 212.96006775 229.38095093 C213.00087558 227.38136729 213.00261131 225.38049839 212.96006775 223.38095093 C213.62006775 223.38095093 214.28006775 223.38095093 214.96006775 223.38095093 C215.29006775 224.37095093 215.62006775 225.36095093 215.96006775 226.38095093 C216.62006775 226.38095093 217.28006775 226.38095093 217.96006775 226.38095093 C217.96006775 156.42095093 217.96006775 86.46095093 217.96006775 14.38095093 C217.30006775 14.38095093 216.64006775 14.38095093 215.96006775 14.38095093 C215.63006775 13.06095093 215.30006775 11.74095093 214.96006775 10.38095093 C213.91556864 13.51444825 214.0258313 14.37063349 214.96006775 17.38095093 C212.98006775 16.88595093 212.98006775 16.88595093 210.96006775 16.38095093 C211.31069275 15.65907593 211.66131775 14.93720093 212.02256775 14.19345093 C213.07512814 11.03576974 212.73050767 9.54831505 211.96006775 6.38095093 C212.29006775 5.72095093 212.62006775 5.06095093 212.96006775 4.38095093 C211.01007646 4.57566203 211.01007646 4.57566203 208.96006775 5.38095093 C207.67570041 7.36472763 207.67570041 7.36472763 206.96006775 9.38095093 C205.96006775 6.38095093 205.96006775 6.38095093 206.96006775 3.38095093 C137.33006775 3.38095093 67.70006775 3.38095093 -4.03993225 3.38095093 Z " fill="#0403EB" transform="translate(99.03993225097656,79.61904907226563)"/>
<path d="M0 0 C0.33 0 0.66 0 1 0 C1.0934192 28.69389393 1.16396746 57.38776509 1.20724869 86.08178043 C1.2278786 99.40476229 1.25600749 112.72761799 1.30175781 126.05053711 C1.34161228 137.66205786 1.3674297 149.2735102 1.37635398 160.88509744 C1.38157103 167.03401465 1.39384225 173.18273614 1.42292023 179.33159065 C1.45006711 185.11897576 1.45844633 190.90608449 1.45243073 196.69352722 C1.45353127 198.8175653 1.46148928 200.94161261 1.4768219 203.06559563 C1.49673808 205.9668042 1.4919329 208.86697079 1.48101807 211.76820374 C1.49266943 212.60771342 1.5043208 213.4472231 1.51632524 214.31217247 C1.45849786 220.00304797 0.45799973 223.41303025 -3 228 C-7.82938788 231.44206311 -12.33291376 231.4266836 -18.03993225 231.38095093 C-18.93991249 231.3856309 -19.83989273 231.39031087 -20.7671451 231.39513266 C-23.77728716 231.40708116 -26.78697384 231.39762592 -29.79711914 231.38818359 C-31.95735438 231.39224932 -34.11758755 231.39759121 -36.27781677 231.40411377 C-42.14129841 231.41779212 -48.00462172 231.41248671 -53.86810613 231.40297651 C-60.00236136 231.39538364 -66.136603 231.40242441 -72.27085876 231.40713501 C-82.57130366 231.41259322 -92.87168404 231.40539876 -103.17211914 231.39111328 C-115.08507425 231.37478236 -126.99787536 231.38007829 -138.91082674 231.3965925 C-149.13600772 231.41020029 -159.3611423 231.4121306 -169.5863294 231.40427649 C-175.69479137 231.39959666 -181.80318092 231.39898378 -187.91163826 231.40888596 C-193.65313374 231.41754316 -199.39443035 231.41155636 -205.13590431 231.39420319 C-207.24464335 231.39023189 -209.35339908 231.39138334 -211.4621315 231.39799118 C-214.33733178 231.40617109 -217.21189205 231.39592796 -220.08705139 231.38095093 C-220.92440309 231.38764309 -221.76175479 231.39433526 -222.62448078 231.40123022 C-227.23168627 231.35457841 -230.25634943 230.98901779 -234 228 C-234.33 227.34 -234.66 226.68 -235 226 C-234.42262581 226.32492428 -233.84525161 226.64984855 -233.25038123 226.98461902 C-230.919642 228.03625785 -229.52296175 228.24891198 -226.9939003 228.24609566 C-225.806308 228.2520688 -225.806308 228.2520688 -224.59472394 228.25816262 C-223.73091194 228.25233693 -222.86709994 228.24651125 -221.97711182 228.24050903 C-220.59378635 228.24307231 -220.59378635 228.24307231 -219.18251491 228.24568737 C-216.0854653 228.24898744 -212.98863128 228.23796996 -209.89160156 228.22705078 C-207.67429103 228.22648678 -205.45698012 228.22680301 -203.2396698 228.22793579 C-197.21320678 228.22851073 -191.18682302 228.21673347 -185.16037846 228.20278788 C-178.86495933 228.19030414 -172.56953848 228.18911188 -166.27410889 228.18673706 C-155.70534923 228.1812227 -145.13661562 228.16872152 -134.56787109 228.15087891 C-123.68213039 228.13252024 -112.79639759 228.11836367 -101.91064453 228.10986328 C-101.23962142 228.10933783 -100.56859831 228.10881239 -99.87724116 228.10827102 C-96.51090772 228.10566094 -93.14457422 228.10313352 -89.77824068 228.10064721 C-61.85214016 228.07972958 -33.92607213 228.04454018 -6 228 C-5.8453125 227.0409375 -5.8453125 227.0409375 -5.6875 226.0625 C-5.460625 225.381875 -5.23375 224.70125 -5 224 C-4.01 223.67 -3.02 223.34 -2 223 C-0.98851536 217.9643232 -0.84782682 213.15072836 -0.84178162 208.04031372 C-0.83684364 207.14905631 -0.83190566 206.2577989 -0.82681805 205.33953369 C-0.8114855 202.35933288 -0.80309393 199.37915354 -0.79467773 196.39892578 C-0.78509588 194.26013501 -0.77508561 192.12134612 -0.76467896 189.9825592 C-0.73765719 184.17939262 -0.71663283 178.37621793 -0.69667697 172.57302332 C-0.67480061 166.50715312 -0.64741998 160.44130785 -0.62062073 154.37545776 C-0.57071618 142.89027302 -0.52576903 131.40507444 -0.48259836 119.91986263 C-0.43320688 106.84377683 -0.37829583 93.76771605 -0.32291877 80.69165444 C-0.20913307 53.79445963 -0.10228658 26.89724083 0 0 Z " fill="#4C51D8" transform="translate(319,89)"/>
<path d="M0 0 C0.90068581 -0.00397441 1.80137161 -0.00794881 2.72935092 -0.01204365 C5.74183772 -0.02165403 8.75385342 -0.00985611 11.7663269 0.00190735 C13.92818375 -0.00052099 16.09003947 -0.00424072 18.25189209 -0.00915527 C24.11944681 -0.01856092 29.98683463 -0.00914206 35.85437632 0.00417686 C41.99176465 0.01549011 48.12914476 0.01138401 54.26654053 0.00942993 C64.57118458 0.00854705 74.87576283 0.01962725 85.1803894 0.03804016 C97.10129146 0.05921888 109.0220972 0.06271523 120.94301426 0.0564782 C132.40449557 0.05078817 143.86594288 0.05642523 155.32741928 0.06765175 C160.20852155 0.07230136 165.08960306 0.07317003 169.97070694 0.0710659 C175.71462843 0.06918542 181.45845156 0.07726848 187.20235062 0.0931263 C189.31312147 0.09737671 191.42390229 0.09821464 193.5346756 0.0954361 C196.41010732 0.0922246 199.28524323 0.10127004 202.16064453 0.11352539 C203.00090907 0.10974607 203.84117361 0.10596674 204.70690072 0.10207289 C211.68092299 0.15485419 211.68092299 0.15485419 214.95333862 2.3742218 C211.68470856 4.00853683 208.07519813 3.50316087 204.48381042 3.48774719 C203.59682612 3.48789605 202.70984182 3.48804491 201.7959792 3.48819828 C198.8058468 3.48750047 195.81577487 3.47964306 192.82565308 3.47187805 C190.68896011 3.46996005 188.55226669 3.4684957 186.41557312 3.467453 C181.80474841 3.46428497 177.19394187 3.45800567 172.58312416 3.4493866 C165.29297139 3.43589856 158.00282474 3.42997703 150.71266174 3.42524719 C133.91424947 3.41318327 117.11585296 3.39115575 100.31745148 3.36901855 C84.93823656 3.34884558 69.55902701 3.33076877 54.17980164 3.32080364 C46.93278152 3.31581894 39.68578931 3.30595496 32.43878043 3.29237366 C27.92719422 3.2849125 23.41561186 3.28159798 18.90402031 3.2794075 C16.81224462 3.27753575 14.72046965 3.27393532 12.62870026 3.26847458 C9.77171065 3.26125155 6.91478224 3.26022111 4.05778503 3.26069641 C2.81807614 3.25530397 2.81807614 3.25530397 1.55332261 3.24980259 C-6.94956459 2.98643423 -6.94956459 2.98643423 -14.42166138 6.2492218 C-17.67080481 10.49810168 -17.19895967 14.9444377 -17.20487976 20.04907227 C-17.21228673 21.39436413 -17.21228673 21.39436413 -17.21984333 22.7668336 C-17.23524999 25.78399169 -17.24358753 28.80112845 -17.25198364 31.8183136 C-17.26155967 33.97636606 -17.27156959 36.13441663 -17.28198242 38.29246521 C-17.30906732 44.16192304 -17.33005747 50.03138894 -17.34998441 55.90087485 C-17.37182186 62.03082492 -17.3992215 68.16075 -17.42604065 74.29067993 C-17.47599788 85.90346205 -17.52092546 97.51625801 -17.56406301 109.12906724 C-17.61340951 122.34776518 -17.66833722 135.56643807 -17.7237426 148.78511178 C-17.83760917 175.98145842 -17.94443802 203.17782909 -18.04666138 230.3742218 C-18.37666138 230.3742218 -18.70666138 230.3742218 -19.04666138 230.3742218 C-19.14006078 201.66305711 -19.21061911 172.95191515 -19.25391006 144.2406292 C-19.27454418 130.90977167 -19.30268109 117.57904011 -19.34841919 104.24824524 C-19.3882608 92.63050815 -19.41408802 81.01283937 -19.42301536 69.39503586 C-19.42823459 63.24223826 -19.44051963 57.08963611 -19.4695816 50.93690109 C-19.49670821 45.1470568 -19.50511183 39.3574887 -19.4990921 33.5675869 C-19.50019356 31.44151624 -19.50816363 29.31543645 -19.52348328 27.1894207 C-19.54336774 24.28786145 -19.53860588 21.38734668 -19.52767944 18.48576355 C-19.53933081 17.64334103 -19.55098217 16.8009185 -19.56298661 15.93296802 C-19.50907124 10.64055753 -18.71225972 7.46671726 -15.04666138 3.3742218 C-10.13996028 -0.01002825 -5.74330973 -0.05067318 0 0 Z " fill="#4D52D9" transform="translate(99.04666137695313,79.62577819824219)"/>
<path d="M0 0 C0.33 0 0.66 0 1 0 C0.67 71.61 0.34 143.22 0 217 C0.99 217.33 1.98 217.66 3 218 C3.495 217.01 3.495 217.01 4 216 C4.99 216 5.98 216 7 216 C6.67 217.65 6.34 219.3 6 221 C7.134375 221.268125 8.26875 221.53625 9.4375 221.8125 C10.613125 222.204375 11.78875 222.59625 13 223 C13.33 223.99 13.66 224.98 14 226 C13.34 226 12.68 226 12 226 C12 226.99 12 227.98 12 229 C81.96 229 151.92 229 224 229 C224 229.33 224 229.66 224 230 C195.69727671 230.1167763 167.39458949 230.20496039 139.09167385 230.25906086 C125.95027554 230.28484778 112.80902687 230.32000796 99.66772461 230.37719727 C88.21441663 230.4270169 76.76121702 230.45928746 65.30780369 230.47044247 C59.2426732 230.47696358 53.17785275 230.4923008 47.11282158 230.52865028 C41.40418837 230.56258659 35.69599295 230.57305752 29.98726845 230.56553841 C27.89224748 230.56691399 25.79721188 230.57686026 23.70227814 230.59602737 C20.84028324 230.62092819 17.97993823 230.61491577 15.11790466 230.60127258 C14.29006782 230.61583679 13.46223099 230.630401 12.60930818 230.64540654 C7.72436289 230.58252059 4.13774284 229.78823315 0.29453713 226.64395612 C-2.24271051 223.42185944 -1.94037909 219.94009031 -1.84851074 215.99093628 C-1.85519728 215.08223223 -1.86188382 214.17352818 -1.86877298 213.23728764 C-1.88265036 210.19092642 -1.84648347 207.14722489 -1.81054688 204.10107422 C-1.81020943 201.91803837 -1.81293973 199.7350002 -1.81851196 197.55197144 C-1.82479873 191.62211443 -1.78771119 185.69322663 -1.74268913 179.76356649 C-1.702676 173.56435034 -1.70147346 167.36512741 -1.69592285 161.165802 C-1.68025976 150.08969254 -1.63380745 139.01398918 -1.57180721 127.93804957 C-1.49387989 113.91334362 -1.46344055 99.88875942 -1.43749142 85.86386847 C-1.41486611 74.46911893 -1.38065455 63.07439867 -1.34375 51.6796875 C-1.33984442 50.45475885 -1.33593884 49.2298302 -1.3319149 47.9677825 C-1.30860836 40.93480274 -1.27933318 33.90189187 -1.24116135 26.86897659 C-1.23022306 24.73521459 -1.22094367 22.60144337 -1.21341324 20.46766663 C-1.20275617 17.56342859 -1.18593771 14.65929304 -1.1673584 11.75509644 C-1.1654964 10.90345504 -1.16363441 10.05181364 -1.16171598 9.17436492 C-1.13482758 5.86569828 -1.0535549 3.16066471 0 0 Z " fill="#0404E7" transform="translate(82,88)"/>
<path d="M0 0 C2.46157932 1.45324993 2.46157932 1.45324993 5 4 C5.49427834 7.09933593 5.66368299 9.6488347 5.61473083 12.7480011 C5.62041409 13.6407778 5.62609735 14.53355451 5.63195282 15.45338506 C5.64489441 18.45157211 5.62203217 21.44841937 5.59936523 24.4465332 C5.60122863 26.5933765 5.60526383 28.74021886 5.61131287 30.88705444 C5.62130904 36.72406293 5.60007979 42.56058778 5.57283282 48.39752603 C5.5490366 54.50281626 5.551948 60.60809633 5.55152893 66.71342468 C5.54689681 76.9704102 5.52323089 87.22721045 5.48706055 97.48413086 C5.44535812 109.34131685 5.42774778 121.1983358 5.4244408 133.05559093 C5.42083934 145.67515428 5.401957 158.29465752 5.37732053 170.91419578 C5.37109358 174.55087862 5.36745611 178.18755687 5.36428642 181.82424355 C5.3583798 187.54271987 5.34204964 193.26107711 5.31768227 198.97950363 C5.31024923 201.07771954 5.30617078 203.17595044 5.30570221 205.27417946 C5.30444193 208.1399246 5.29087603 211.00535722 5.27415466 213.87104797 C5.27656975 214.70004728 5.27898483 215.52904659 5.2814731 216.38316709 C5.23688095 221.27012231 4.79036145 225.42309159 3 230 C2.01 230.33 1.02 230.66 0 231 C-0.33 231.99 -0.66 232.98 -1 234 C-3.31 234 -5.62 234 -8 234 C-8 233.34 -8 232.68 -8 232 C-6.35 232.33 -4.7 232.66 -3 233 C-3.20625 232.154375 -3.4125 231.30875 -3.625 230.4375 C-4.05843012 226.46439054 -3.2762763 223.75375382 -2 220 C-1.34 220 -0.68 220 0 220 C0.99 220.99 1.98 221.98 3 223 C2.505 114.595 2.505 114.595 2 4 C1.01 3.67 0.02 3.34 -1 3 C-0.67 2.01 -0.34 1.02 0 0 Z " fill="#0505D0" transform="translate(314,83)"/>
<path d="M0 0 C1.9375 0.3125 1.9375 0.3125 4 1 C5.31479858 4.94439573 5.1411335 8.70584062 5.13371277 12.81756592 C5.13597833 13.72990596 5.13824388 14.642246 5.14057809 15.58223271 C5.14692936 18.65216526 5.146088 21.72205378 5.14526367 24.79199219 C5.1482545 26.98794614 5.15165685 29.18389957 5.15544128 31.37985229 C5.16429426 37.35516351 5.16661997 43.33046041 5.16725707 49.30577755 C5.16820539 54.29083828 5.17188289 59.27589565 5.17542917 64.2609551 C5.18311317 75.35000398 5.18609734 86.43904722 5.18542381 97.52809843 C5.18538386 98.19365017 5.1853439 98.85920191 5.18530273 99.54492188 C5.18526185 100.21128691 5.18522097 100.87765194 5.18517885 101.56420985 C5.18477259 112.35840435 5.19433653 123.15256394 5.2084411 133.94674835 C5.22281053 145.03117027 5.22952787 156.1155778 5.22884732 167.20000958 C5.2285922 173.42258849 5.23145101 179.64512792 5.24202538 185.86769867 C5.25170097 191.72155831 5.25178918 197.57534068 5.24450874 203.42920303 C5.24346216 205.57741788 5.24583012 207.72563753 5.2518692 209.87384415 C5.25958181 212.80748697 5.25494899 215.74086248 5.24723816 218.67449951 C5.25238172 219.52363568 5.25752529 220.37277185 5.26282471 221.24763942 C5.23403044 226.20886447 4.58858813 230.29310755 3 235 C2.401875 235.144375 1.80375 235.28875 1.1875 235.4375 C-0.56150404 235.8872439 -2.28677023 236.42892341 -4 237 C-6.96282535 237.09426643 -9.90183838 237.13025674 -12.8646698 237.12025452 C-13.7819488 237.12110894 -14.69922781 237.12196337 -15.64430314 237.12284368 C-18.73058043 237.12449619 -21.81680386 237.11898082 -24.90307617 237.11352539 C-27.11038715 237.11324344 -29.31769823 237.1134014 -31.52500916 237.1139679 C-37.52878044 237.11425558 -43.53253186 237.10836355 -49.53629851 237.10139394 C-55.80636861 237.09515555 -62.07643912 237.09455622 -68.34651184 237.09336853 C-78.87415912 237.09061052 -89.40179987 237.08435831 -99.92944336 237.07543945 C-110.77351851 237.06626207 -121.61759167 237.05918283 -132.46166992 237.05493164 C-133.12996876 237.05466892 -133.7982676 237.05440619 -134.48681792 237.05413551 C-137.83943796 237.05283048 -141.19205802 237.05156677 -144.54467809 237.05032361 C-172.36312382 237.03986246 -200.1815614 237.02226578 -228 237 C-228 236.34 -228 235.68 -228 235 C-226.86140219 235.00184359 -225.72280437 235.00368717 -224.5497036 235.00558662 C-196.85822886 235.04996552 -169.16675874 235.08284193 -141.47525597 235.10362434 C-138.81048963 235.10567736 -136.14572332 235.1077467 -133.48095703 235.10986328 C-132.81861441 235.1103879 -132.1562718 235.11091252 -131.47385819 235.11145304 C-121.41631842 235.11961441 -111.35879755 235.13365757 -101.30126953 235.15087891 C-89.6307952 235.17079954 -77.96033787 235.1837133 -66.28984702 235.18817699 C-60.10916834 235.19078661 -53.92853831 235.19692939 -47.74787521 235.21146011 C-41.93182085 235.22502302 -36.11583522 235.22922523 -30.29976654 235.22621536 C-28.164032 235.2267661 -26.02829519 235.2307512 -23.89257431 235.23841095 C-20.97813339 235.24835188 -18.06395247 235.24597189 -15.14950562 235.24050903 C-14.30319214 235.24633472 -13.45687867 235.2521604 -12.58491933 235.25816262 C-8.01981907 235.23501274 -4.25357068 234.87424775 0 233 C1.39238047 231.13252737 1.39238047 231.13252737 2 229 C2.33 228.01 2.66 227.02 3 226 C3.100594 223.0864398 3.14342008 220.19667199 3.14044189 217.28286743 C3.14341302 216.38136691 3.14638414 215.4798664 3.1494453 214.55104768 C3.15814527 211.51790921 3.15964163 208.48481014 3.16113281 205.45166016 C3.16576002 203.28201716 3.17078454 201.11237499 3.17617798 198.94273376 C3.18931223 193.03987169 3.19574878 187.137021 3.20018864 181.2341466 C3.20311733 177.54870862 3.20722172 173.86327377 3.21169281 170.17783737 C3.22536961 158.65389731 3.23503573 147.12996437 3.2388947 135.60601676 C3.24337792 122.29007743 3.26093729 108.97428634 3.2898953 95.65837824 C3.3114871 85.37382153 3.32159762 75.08929371 3.32293582 64.80471456 C3.32398552 58.65818747 3.32992852 52.51175673 3.34775543 46.36525345 C3.36419314 40.58524331 3.36641254 34.8054024 3.35761642 29.02537727 C3.35684378 26.90211981 3.36121858 24.7788534 3.37107468 22.65561867 C3.3837271 19.76057566 3.37795388 16.86613812 3.36749268 13.97109985 C3.37554908 13.12781085 3.38360548 12.28452184 3.39190602 11.41567862 C3.35245852 6.75887463 2.92774225 3.84405348 0 0 Z " fill="#F0F2FE" transform="translate(316,84)"/>
<path d="M0 0 C0.33 0 0.66 0 1 0 C1.33 70.62 1.66 141.24 2 214 C-1.33867219 210.66132781 -1.35155482 209.6330936 -1.39190602 205.12106407 C-1.38384962 204.31338557 -1.37579321 203.50570707 -1.36749268 202.67355347 C-1.37076152 201.81414976 -1.37403036 200.95474606 -1.37739825 200.06929982 C-1.38470324 197.17867213 -1.37049875 194.28854626 -1.35644531 191.39794922 C-1.35723583 189.33018914 -1.35933199 187.26242921 -1.36264038 185.19467163 C-1.36778444 179.570924 -1.35421967 173.94735864 -1.33711338 168.32364035 C-1.32210816 162.44909189 -1.32325217 156.5745461 -1.32244873 150.69998169 C-1.31875359 140.83560054 -1.30377255 130.97128888 -1.28125 121.10693359 C-1.25235971 108.42744513 -1.24202586 95.7480126 -1.2375679 83.0684948 C-1.23359401 72.18857208 -1.2210919 61.30866162 -1.20722103 50.42874765 C-1.2031147 46.92089141 -1.20019284 43.4130356 -1.19742584 39.90517807 C-1.19254646 34.40427856 -1.18236621 28.9034133 -1.16798782 23.40253067 C-1.16345044 21.37757934 -1.16062278 19.35262339 -1.15958023 17.32766724 C-1.15784496 14.57590306 -1.14998987 11.82422574 -1.14044189 9.07247925 C-1.14130838 8.26033931 -1.14217486 7.44819937 -1.1430676 6.61144912 C-1.11420737 1.11420737 -1.11420737 1.11420737 0 0 Z " fill="#0401FA" transform="translate(84,94)"/>
<path d="M0 0 C0.99 0.33 1.98 0.66 3 1 C1.7934375 2.175625 1.7934375 2.175625 0.5625 3.375 C-3.58548618 7.62415658 -3.14622324 10.92108037 -3.14044189 16.59687805 C-3.14341302 17.49752414 -3.14638414 18.39817024 -3.1494453 19.32610863 C-3.15815893 22.36235316 -3.15964279 25.39855839 -3.16113281 28.43481445 C-3.1657591 30.60430995 -3.1707835 32.77380462 -3.17617798 34.94329834 C-3.1893222 40.85035173 -3.19575087 46.75739374 -3.20018864 52.66445947 C-3.2031161 56.35206968 -3.20722028 60.03967675 -3.21169281 63.72728539 C-3.22537305 75.25656823 -3.23503713 86.78584394 -3.2388947 98.31513435 C-3.24337694 111.63956836 -3.26093035 124.96386796 -3.2898953 138.28827316 C-3.31148759 148.57705596 -3.32159767 158.86580987 -3.32293582 169.1546151 C-3.32398561 175.30451052 -3.32993025 181.45430965 -3.34775543 187.60418129 C-3.36419371 193.38828202 -3.36641225 199.17221364 -3.35761642 204.95632935 C-3.35684377 207.08119852 -3.36121864 209.20607662 -3.37107468 211.33092308 C-3.38372713 214.22820897 -3.37795382 217.12488986 -3.36749268 220.02217102 C-3.37957728 221.28812771 -3.37957728 221.28812771 -3.39190602 222.57965928 C-3.34388603 228.25294629 -2.2655478 231.56663384 1.6875 235.8125 C2.120625 236.204375 2.55375 236.59625 3 237 C2.505 237.99 2.505 237.99 2 239 C-0.90762008 237.99737239 -1.93005579 237.10892793 -3.61290932 234.48812866 C-5.35857093 230.09829865 -5.41776481 226.4908424 -5.38095093 221.81494141 C-5.3856309 220.89933252 -5.39031087 219.98372364 -5.39513266 219.04036903 C-5.40708318 215.97728547 -5.39762507 212.91464926 -5.38818359 209.8515625 C-5.39224926 207.65354145 -5.39759111 205.45552245 -5.40411377 203.25750732 C-5.41779366 197.29065696 -5.41248585 191.32396216 -5.40297651 185.35710907 C-5.39538346 179.11388224 -5.40242454 172.87066876 -5.40713501 166.62744141 C-5.41294326 155.47123274 -5.4036178 144.31508119 -5.388357 133.15888619 C-5.37495412 123.04794635 -5.37728231 112.93710985 -5.39111328 102.82617188 C-5.40717538 91.07873188 -5.41313985 79.33134221 -5.40427649 67.58389091 C-5.39959838 61.3675272 -5.39897898 55.15123464 -5.40888596 48.93487549 C-5.417549 43.09078126 -5.4115456 37.24688227 -5.39420319 31.40280914 C-5.39023484 29.25740127 -5.39137832 27.11197698 -5.39799118 24.96657562 C-5.4061828 22.03918111 -5.39591358 19.11241314 -5.38095093 16.18505859 C-5.38764309 15.33505594 -5.39433526 14.48505329 -5.40123022 13.60929298 C-5.35233292 8.68079601 -4.74534687 5.26658399 -2 1 C-1.34 0.67 -0.68 0.34 0 0 Z " fill="#F2F4FF" transform="translate(84,81)"/>
<path d="M0 0 C0.33 0 0.66 0 1 0 C0.99907821 1.10914198 0.99815641 2.21828396 0.99720669 3.3610363 C0.97499734 30.36126826 0.95856957 57.36149904 0.94818783 84.3617382 C0.94303373 97.41889648 0.93600789 110.47604872 0.92456055 123.53320312 C0.91458666 134.91512339 0.90814012 146.29703927 0.90591151 157.67896378 C0.904609 163.70437609 0.90155222 169.72977588 0.89426994 175.75518417 C0.88746708 181.43006408 0.88539172 187.10492636 0.88689232 192.77980995 C0.88661791 194.85903456 0.88463815 196.93825978 0.88079453 199.01748085 C0.87579059 201.86477385 0.87702628 204.71200101 0.87974548 207.55929565 C0.87683264 208.37450302 0.8739198 209.18971039 0.87091869 210.02962101 C0.88556247 215.73553495 1.34485868 221.33308156 2 227 C1.01 226.34 0.02 225.68 -1 225 C-1.29633673 222.04826188 -1.39530051 219.30602537 -1.36749268 216.35169983 C-1.37076152 215.44555905 -1.37403036 214.53941828 -1.37739825 213.60581869 C-1.38471661 210.55092878 -1.37048586 207.49651146 -1.35644531 204.44165039 C-1.35723566 202.2590578 -1.35933129 200.07646535 -1.36264038 197.89387512 C-1.36778934 191.95176621 -1.35420883 186.00982949 -1.33711338 180.06774831 C-1.32211554 173.86047223 -1.3232523 167.65319875 -1.32244873 161.44590759 C-1.31875199 151.01900395 -1.30385575 140.59216189 -1.28125 130.1652832 C-1.2579965 119.43187923 -1.24382621 108.69851684 -1.24023438 97.96508789 C-1.24001161 97.30419653 -1.23978884 96.64330517 -1.23955932 95.96238679 C-1.23934 95.30265127 -1.23912067 94.64291574 -1.2388947 93.96318823 C-1.23462384 81.1364394 -1.22268904 68.30970798 -1.20722103 55.48296809 C-1.20311762 51.77849717 -1.2001942 48.07402666 -1.19742584 44.36955452 C-1.19253924 38.55430587 -1.1823466 32.73908947 -1.16798782 26.92385674 C-1.16345765 24.78525458 -1.16062447 22.64664808 -1.15958023 20.50804138 C-1.15783962 17.59708959 -1.14997008 14.686219 -1.14044189 11.77528381 C-1.14130838 10.92159606 -1.14217486 10.0679083 -1.1430676 9.18835121 C-1.12669516 5.87198713 -1.05611571 3.16834713 0 0 Z " fill="#0407B7" transform="translate(82,88)"/>
<path d="M0 0 C0.33 0.99 0.66 1.98 1 3 C1.66 3 2.32 3 3 3 C3 4.32 3 5.64 3 7 C1.68 7 0.36 7 -1 7 C-1.33 6.34 -1.66 5.68 -2 5 C-2.66 4.67 -3.32 4.34 -4 4 C-3.01 3.67 -2.02 3.34 -1 3 C-0.67 2.01 -0.34 1.02 0 0 Z " fill="#0506DE" transform="translate(87,83)"/>
<path d="M0 0 C0.598125 0.763125 1.19625 1.52625 1.8125 2.3125 C3.46959332 4.3483575 5.10297674 6.1978279 7 8 C6.67 8.66 6.34 9.32 6 10 C2.83884224 8.63016497 2.0072908 8.0109362 0 5 C-0.125 2.3125 -0.125 2.3125 0 0 Z " fill="#D8DEFB" transform="translate(80,310)"/>
<path d="M0 0 C0.556875 0.268125 1.11375 0.53625 1.6875 0.8125 C1.11 1.06 0.5325 1.3075 -0.0625 1.5625 C-3.76831643 3.62128691 -5.97922903 6.31259355 -8.3125 9.8125 C-8.00654824 6.24306285 -7.28825359 4.78235581 -5 1.9375 C-2.3125 -0.1875 -2.3125 -0.1875 0 0 Z " fill="#272AAA" transform="translate(89.3125,81.1875)"/>
<path d="M0 0 C0.33 0 0.66 0 1 0 C1.36637589 6.35051546 1.36637589 6.35051546 -0.375 9.4375 C-2 11 -2 11 -4 11 C-4 9.68 -4 8.36 -4 7 C-3.01 6.67 -2.02 6.34 -1 6 C-0.67 4.02 -0.34 2.04 0 0 Z " fill="#1C1EB0" transform="translate(318,306)"/>
<path d="M0 0 C0.99 0.33 1.98 0.66 3 1 C3 2.65 3 4.3 3 6 C1.68 5.67 0.36 5.34 -1 5 C-0.67 3.35 -0.34 1.7 0 0 Z " fill="#0704F1" transform="translate(314,307)"/>
<path d="M0 0 C1.9375 0.3125 1.9375 0.3125 4 1 C5.28317892 4.84953676 5.06643637 7.94738135 5 12 C4.67 12 4.34 12 4 12 C3.87882812 11.38511719 3.75765625 10.77023438 3.6328125 10.13671875 C3.46523438 9.32847656 3.29765625 8.52023438 3.125 7.6875 C2.96257812 6.88699219 2.80015625 6.08648437 2.6328125 5.26171875 C2.05521001 2.74698882 2.05521001 2.74698882 0 0 Z " fill="#E5EAFB" transform="translate(316,84)"/>
<path d="M0 0 C0.99 0.33 1.98 0.66 3 1 C0.66666667 3.33333333 -1.66666667 5.66666667 -4 8 C-3.6875 5.125 -3.6875 5.125 -3 2 C-2.01 1.34 -1.02 0.68 0 0 Z " fill="#E0E8FD" transform="translate(84,81)"/>
</svg>
